<svg version="1.1" id="Layer_1" xmlns="http://www.w3.org/2000/svg" xmlns:xlink="http://www.w3.org/1999/xlink" x="0px" y="0px"
	 width="100%" viewBox="0 0 66 127" enable-background="new 0 0 66 127" xml:space="preserve">
<path fill="#FEFEFE" opacity="1.000000" stroke="none" 
	d="
M1.000000,90.000000 
	C1.000000,70.979103 1.000000,51.958210 1.359125,32.408005 
	C2.965780,31.195606 4.213311,30.512520 5.887422,29.922539 
	C6.682864,30.687908 7.051726,31.360172 6.952357,32.036057 
	C6.005033,33.320274 5.525939,34.600872 5.035608,36.252064 
	C5.029853,37.116932 5.035335,37.611210 5.021158,38.485268 
	C5.012968,39.878590 5.024436,40.892124 5.029193,42.267479 
	C5.036531,43.111523 5.050579,43.593750 5.053252,44.052219 
	C5.041876,44.028461 5.090868,44.047428 4.913023,44.097168 
	C4.648430,44.232063 4.472520,44.356556 4.489835,44.395805 
	C4.581785,44.604248 4.722215,44.791302 4.949951,45.333687 
	C4.945101,46.582623 4.836155,47.483631 4.493281,48.327614 
	C4.270228,48.409927 4.281102,48.549267 4.291976,48.688606 
	C4.440121,48.636581 4.588266,48.584557 5.006269,48.259197 
	C16.141552,47.985863 27.006979,47.985863 38.844086,47.985863 
	C36.914783,46.934509 35.958786,46.413551 35.225227,45.655563 
	C36.426727,45.068932 37.405785,44.719330 38.882542,44.192013 
	C35.176205,41.014194 35.268536,38.320469 39.477608,35.989113 
	C43.081310,36.006081 46.224014,36.136166 49.351704,35.974926 
	C53.527020,35.759686 57.690670,35.318207 62.115555,35.110725 
	C62.900124,35.333485 63.428471,35.419415 63.956821,35.505341 
	C63.113159,34.665695 62.269493,33.826046 61.302467,32.753571 
	C61.116314,32.356682 61.053528,32.192627 60.999176,31.707253 
	C61.040134,30.958733 61.072666,30.531530 61.458458,29.992529 
	C64.765968,27.142084 61.945213,25.390673 60.545391,23.199841 
	C60.449657,22.592287 60.507271,22.155033 60.621319,21.377138 
	C60.372231,20.720240 60.066704,20.403980 59.803143,20.089878 
	C59.845104,20.092033 59.788448,20.154224 59.820667,19.827379 
	C59.520714,18.981812 59.188538,18.463089 58.871056,17.615898 
	C58.569038,16.241638 58.252335,15.195847 57.914825,13.786581 
	C57.464443,12.880270 57.034874,12.337431 56.455185,11.492077 
	C54.993984,10.123646 53.690281,8.143666 52.370674,8.133007 
	C38.967579,8.024745 25.561886,8.237667 12.103823,8.020552 
	C11.700475,7.120185 11.350227,6.559862 10.966069,5.656112 
	C10.288105,3.875124 9.644053,2.437562 9.000000,1.000000 
	C10.388889,1.000000 11.777778,1.000000 13.583298,1.393459 
	C14.393339,3.166274 14.786752,4.545630 15.636880,5.944701 
	C27.734913,5.964417 39.376232,5.964417 51.017548,5.964417 
	C51.098049,5.369993 51.178547,4.775569 51.259045,4.181146 
	C48.332092,3.450234 45.431492,2.250836 42.472782,2.084396 
	C35.998669,1.720200 29.495066,1.880192 23.002289,1.619565 
	C23.001072,1.413045 23.000000,1.000000 23.000000,1.000000 
	C37.628223,1.000000 52.256443,1.000000 66.889969,0.999372 
	C66.930176,1.293176 66.995651,1.587605 66.995689,1.882042 
	C67.000221,43.921368 67.000000,85.960693 67.000000,128.000000 
	C63.957413,128.000000 60.965271,128.000000 57.465652,127.702179 
	C56.638481,126.936134 56.318783,126.467918 55.999290,125.666367 
	C55.999615,124.888588 55.999733,124.444145 56.109425,123.706131 
	C55.672234,122.209183 55.125465,121.005791 54.681221,119.561142 
	C54.922676,119.213860 55.061600,119.107841 55.522125,118.935478 
	C56.192535,118.151329 56.541355,117.433510 56.818401,116.575500 
	C56.746632,116.435295 56.710739,116.122353 57.093796,116.085030 
	C61.751469,114.753914 63.358688,112.270996 61.383373,108.029106 
	C62.583694,107.884178 63.446995,107.750893 63.130234,107.799797 
	C63.647717,105.572342 64.130028,104.143089 64.272743,102.680687 
	C64.390495,101.474144 64.106323,100.228386 64.138016,98.946091 
	C64.183807,98.928040 64.091827,98.963890 63.738667,98.890396 
	C62.974659,98.525146 62.471832,98.269257 61.636894,98.005188 
	C59.536373,97.941185 57.767967,97.885368 55.999672,97.553192 
	C55.999729,96.908356 55.999676,96.539879 56.418182,96.101936 
	C59.505375,95.806198 63.246426,97.292839 63.007820,91.954102 
	C63.131496,90.784782 63.140900,89.901810 63.082333,88.579849 
	C61.914566,87.424873 60.835209,86.127495 59.711624,86.087990 
	C52.814556,85.845474 45.907482,85.887459 39.002884,85.557320 
	C39.002594,84.910019 39.003162,84.540131 39.467079,84.097504 
	C47.554932,84.024773 55.179436,84.024773 62.953846,84.024773 
	C62.953846,82.438034 62.953846,81.280029 62.968433,79.726913 
	C62.956921,78.805267 62.930824,78.278755 62.864693,77.353233 
	C62.984924,74.079514 61.203384,73.931931 58.962242,73.957214 
	C50.989262,74.047195 43.014668,73.994362 35.040684,73.995087 
	C29.711914,73.995567 24.383144,73.995178 19.054375,73.995178 
	C18.983335,74.546837 18.912294,75.098495 18.841255,75.650146 
	C22.085554,76.441505 25.358208,77.135780 28.560488,78.071007 
	C29.880064,78.456383 31.048370,79.359718 31.735226,80.105064 
	C30.838827,80.314667 30.492682,80.446678 30.111034,80.982300 
	C32.730038,84.249825 35.384541,87.113739 38.021950,89.991028 
	C38.004860,90.004417 38.020145,89.964241 38.016563,90.321205 
	C38.021809,91.154045 38.030640,91.629913 38.018108,92.502457 
	C37.973938,93.943016 37.951126,94.986923 37.696808,96.191177 
	C37.309452,96.881081 37.153599,97.410629 36.884377,98.059799 
	C36.771004,98.179420 36.442646,98.150467 36.062424,98.143684 
	C35.196705,98.855148 34.711208,99.573387 34.143936,100.258133 
	C34.062153,100.224648 34.238739,100.232109 33.784691,100.158112 
	C32.413483,100.102112 31.496328,100.120110 30.310097,100.072273 
	C29.663567,99.411049 29.286114,98.815651 28.937847,97.830017 
	C29.526867,95.502617 30.086699,93.565468 30.933865,90.634064 
	C29.117544,91.276619 28.054472,91.652702 26.523735,92.015228 
	C19.705311,91.943268 13.354555,91.884872 6.908876,91.465332 
	C4.875968,90.736137 2.937984,90.368073 1.000000,90.000000 
M5.075772,52.082710 
	C4.679314,54.002312 3.014319,56.313038 6.907413,57.626122 
	C6.937047,58.084400 6.966681,58.542679 6.379103,59.091652 
	C7.231961,60.727859 8.084820,62.364071 9.463751,64.622940 
	C11.101142,65.085007 12.732949,65.922104 14.376855,65.946579 
	C23.196558,66.077904 32.019276,66.006554 40.840954,66.005836 
	C47.419979,66.005302 53.999001,66.005730 60.578026,66.005730 
	C60.754467,65.346809 60.930912,64.687889 61.107353,64.028969 
	C59.384029,63.351906 57.669231,62.112915 55.936024,62.086601 
	C41.960587,61.874424 27.981688,61.890442 14.001940,61.280190 
	C14.002615,60.909138 14.003291,60.538086 14.930801,60.022305 
	C29.211044,60.022305 43.491287,60.022305 57.771530,60.022305 
	C57.975212,59.542088 58.178898,59.061874 58.382580,58.581657 
	C56.180157,57.308228 53.977737,56.034798 52.452057,54.067009 
	C52.615795,53.582817 52.779530,53.098625 52.741825,52.321545 
	C52.570492,52.148376 52.367081,52.030586 51.355900,51.826691 
	C49.014210,51.220303 46.680271,50.127304 44.329514,50.089848 
	C32.752010,49.905365 21.169632,49.954102 9.590169,50.056141 
	C8.129742,50.069012 6.676361,50.881496 5.075772,52.082710 
M51.458588,67.997009 
	C38.463142,67.997009 25.467697,67.997009 12.472253,67.997009 
	C12.335419,68.585182 12.198585,69.173355 12.061750,69.761520 
	C14.143935,70.508049 16.211529,71.847542 18.310812,71.899200 
	C27.774994,72.132088 37.248158,71.999939 46.718086,71.999535 
	C51.785305,71.999321 56.852520,71.999496 61.919739,71.999496 
	C62.131779,71.453606 62.343822,70.907715 62.555862,70.361824 
	C61.343288,69.572998 60.212364,68.337677 58.899437,68.097572 
	C56.809643,67.715393 54.598557,67.996452 51.458588,67.997009 
M33.712440,92.459663 
	C33.600578,93.037102 33.488720,93.614532 33.376862,94.191978 
	C33.786827,94.197098 34.196796,94.202217 34.606758,94.207336 
	C34.509045,93.627167 34.411327,93.046997 33.712440,92.459663 
M64.516853,110.413391 
	C64.516853,110.413391 64.582001,110.523125 64.516853,110.413391 
M27.590672,89.517464 
	C27.590672,89.517464 27.476740,89.586105 27.590672,89.517464 
z"/>
<path fill="#FEFDFC" opacity="1.000000" stroke="none" 
	d="
M54.578693,119.802399 
	C55.125465,121.005791 55.672234,122.209183 55.722107,123.699890 
	C54.009285,123.601944 52.793362,123.216682 51.311520,122.544167 
	C39.575638,122.256905 28.105680,122.256905 16.635723,122.256905 
	C16.548479,122.740974 16.461233,123.225044 16.373987,123.709114 
	C19.431635,124.475739 22.456751,125.683250 25.554096,125.911789 
	C31.012018,126.314484 36.514030,126.119583 41.881424,126.409561 
	C41.510174,127.096161 41.255085,127.548080 41.000000,128.000000 
	C27.768560,128.000000 14.537123,128.000000 1.000000,128.000000 
	C1.000000,122.316788 1.000000,116.628105 1.258985,110.576691 
	C2.011866,110.476120 2.505762,110.738274 3.108059,111.219391 
	C3.415981,111.711433 3.677014,111.898857 4.053614,112.138351 
	C4.192797,112.325294 4.277926,112.374496 4.363057,112.423691 
	C4.242231,112.282318 4.121402,112.140945 3.892108,111.780655 
	C3.584079,111.288696 3.323015,111.101349 2.995255,110.645874 
	C2.326707,109.528046 1.663355,108.764023 1.000001,108.000000 
	C1.000000,106.933327 1.000000,105.866661 1.253349,104.231621 
	C4.244645,99.900040 3.756031,105.678291 5.629599,105.306046 
	C6.210534,106.445068 6.613558,107.275330 7.122913,108.339722 
	C7.483171,109.019753 7.737097,109.465652 7.814175,110.111343 
	C7.766962,111.183624 7.896597,112.056122 8.115850,113.161209 
	C8.389770,113.688454 8.647047,113.889923 9.356581,114.001083 
	C10.490073,114.057076 11.244286,114.110207 11.998938,114.442429 
	C11.998734,115.093658 11.998095,115.465790 11.717261,115.941315 
	C10.841161,119.464798 12.952345,120.016563 15.616590,120.002342 
	C28.603943,119.933029 41.591324,119.868576 54.578693,119.802399 
z"/>
<path fill="#FCFBFA" opacity="1.000000" stroke="none" 
	d="
M5.451688,104.997299 
	C3.756031,105.678291 4.244645,99.900040 1.253349,103.831627 
	C1.000000,99.643097 1.000000,95.286201 1.000000,90.464653 
	C2.937984,90.368073 4.875968,90.736137 6.494544,91.537819 
	C5.496222,92.738014 4.817307,93.504593 4.138394,94.271172 
	C5.098051,94.852196 6.047200,95.915489 7.019048,95.936661 
	C13.768586,96.083687 20.522840,96.014244 27.730103,96.014244 
	C27.445147,94.476845 27.218275,93.252823 26.991402,92.028793 
	C28.054472,91.652702 29.117544,91.276619 30.933865,90.634064 
	C30.086699,93.565468 29.526867,95.502617 28.479300,97.762863 
	C20.226068,98.085953 12.460574,98.085953 4.695081,98.085953 
	C4.491841,98.653824 4.288602,99.221703 4.085362,99.789574 
	C5.537071,100.528641 6.980236,101.888924 8.441832,101.909027 
	C20.737144,102.078102 33.035828,102.001404 45.333500,101.999367 
	C50.783836,101.998466 56.234177,101.999222 61.793133,101.999222 
	C61.867512,100.313545 61.918259,99.163452 61.969006,98.013367 
	C62.471832,98.269257 62.974659,98.525146 63.738743,98.890518 
	C64.000000,99.000000 64.000252,99.000000 64.000252,99.000000 
	C64.106323,100.228386 64.390495,101.474144 64.272743,102.680687 
	C64.130028,104.143089 63.647717,105.572342 63.130234,107.799797 
	C63.446995,107.750893 62.583694,107.884178 61.284981,107.934509 
	C60.849560,107.851555 60.655266,107.661720 60.678642,107.239059 
	C61.779762,103.289207 59.209457,104.010078 57.369583,104.008270 
	C41.431835,103.992706 25.493952,103.978294 9.556475,104.047798 
	C8.186858,104.053764 6.819888,104.666451 5.451688,104.997299 
z"/>
<path fill="#FCFBFA" opacity="1.000000" stroke="none" 
	d="
M58.856361,17.944366 
	C59.188538,18.463089 59.520714,18.981812 59.367443,19.792480 
	C42.645195,20.057755 26.408316,20.006912 10.171758,20.058321 
	C9.078918,20.061781 7.988523,20.837416 6.896990,21.253914 
	C7.273058,22.223326 7.649127,23.192738 8.128845,24.380222 
	C8.483395,25.009842 8.734297,25.421392 8.623739,25.905863 
	C7.328467,27.262335 6.394655,28.545885 5.460842,29.829433 
	C4.213311,30.512520 2.965780,31.195606 1.359125,31.939346 
	C1.000000,27.643101 1.000000,23.286201 1.412600,18.464619 
	C3.242406,17.148901 5.154523,16.625387 5.977823,15.381316 
	C7.926922,12.436077 9.358926,9.148636 10.999980,5.999539 
	C11.350227,6.559862 11.700475,7.120185 12.005962,8.321150 
	C11.554620,9.869819 11.148037,10.777848 10.659643,11.868589 
	C12.765204,11.986992 14.384295,12.078039 16.002556,12.446293 
	C16.002270,13.093108 16.002813,13.462718 15.570803,13.906178 
	C12.563350,14.593837 8.221624,12.145764 8.264841,17.944366 
	C25.315681,17.944366 42.086021,17.944366 58.856361,17.944366 
z"/>
<path fill="#FFFFFF" opacity="1.000000" stroke="none" 
	d="
M10.966069,5.656113 
	C9.358926,9.148636 7.926922,12.436077 5.977823,15.381316 
	C5.154523,16.625387 3.242406,17.148901 1.412600,17.999969 
	C1.000000,12.446544 1.000000,6.893087 1.000000,1.000000 
	C3.325886,1.000000 5.668210,1.000000 8.505266,1.000000 
	C9.644053,2.437562 10.288105,3.875124 10.966069,5.656113 
z"/>
<path fill="#FCFBFA" opacity="1.000000" stroke="none" 
	d="
M15.180164,5.924985 
	C14.786752,4.545630 14.393339,3.166274 13.999964,1.393459 
	C16.700014,1.000000 19.400026,1.000000 22.550020,1.000000 
	C23.000000,1.000000 23.001072,1.413045 22.638039,1.695527 
	C19.910059,3.293667 17.545113,4.609326 15.180164,5.924985 
z"/>
<path fill="#FCFBFA" opacity="1.000000" stroke="none" 
	d="
M41.449825,128.000000 
	C41.255085,127.548080 41.510174,127.096161 42.283745,126.342552 
	C45.129192,125.614883 47.456161,125.188919 49.856392,124.841858 
	C49.929653,124.920776 50.076157,125.078636 50.052803,125.443283 
	C50.019634,126.538620 50.009815,127.269310 50.000000,128.000000 
	C47.299885,128.000000 44.599770,128.000000 41.449825,128.000000 
z"/>
<path fill="#FEFDFC" opacity="1.000000" stroke="none" 
	d="
M50.437500,128.000000 
	C50.009815,127.269310 50.019634,126.538620 50.432014,125.417114 
	C52.556084,125.350761 54.277584,125.675224 55.999084,125.999695 
	C56.318783,126.467918 56.638481,126.936134 56.979088,127.702179 
	C54.958332,128.000000 52.916668,128.000000 50.437500,128.000000 
z"/>
<path fill="#FCFBFA" opacity="1.000000" stroke="none" 
	d="
M1.000001,108.333328 
	C1.663355,108.764023 2.326707,109.528046 2.995030,110.646034 
	C3.000000,111.000000 2.999661,111.000427 2.999660,111.000427 
	C2.505762,110.738274 2.011866,110.476120 1.258985,110.106979 
	C1.000000,109.555557 1.000000,109.111107 1.000001,108.333328 
z"/>
<path fill="#FCFBFA" opacity="1.000000" stroke="none" 
	d="
M61.105198,30.104328 
	C61.072666,30.531530 61.040134,30.958733 60.531406,31.690611 
	C52.930119,31.995287 45.805027,31.995287 38.358788,31.995287 
	C38.644878,33.742767 38.827404,34.857643 39.009926,35.972519 
	C35.268536,38.320469 35.176205,41.014194 38.882542,44.192013 
	C37.405785,44.719330 36.426727,45.068932 34.838470,45.612602 
	C32.418140,45.203247 30.617222,44.118404 28.794100,44.079708 
	C20.887810,43.911915 12.975040,44.049454 5.064627,44.075977 
	C5.050579,43.593750 5.036531,43.111523 5.493798,42.309982 
	C13.913409,41.990665 21.861704,41.990665 29.809999,41.990665 
	C30.017317,41.469555 30.224634,40.948448 30.431950,40.427338 
	C28.941633,39.616234 27.471577,38.152737 25.957529,38.105713 
	C18.992008,37.889374 12.014210,38.068333 5.040816,38.105484 
	C5.035335,37.611210 5.029853,37.116932 5.498633,36.304153 
	C13.569292,35.985653 21.165689,35.985653 28.683256,35.985653 
	C29.843742,32.913651 28.850935,31.698391 25.997641,31.556719 
	C25.998077,30.910061 25.997675,30.540543 26.369770,30.099117 
	C28.461185,28.963997 30.180107,27.900778 32.078758,27.092672 
	C32.907925,27.120836 33.557365,26.893888 34.597618,26.674385 
	C37.424633,29.874033 40.755508,30.225836 44.486301,30.057009 
	C49.960598,29.809284 55.452778,29.956823 60.979073,29.978271 
	C61.020809,30.020597 61.105198,30.104328 61.105198,30.104328 
M34.433193,29.704348 
	C34.705143,29.989256 34.977093,30.274164 35.249039,30.559074 
	C35.366989,30.446360 35.484940,30.333645 35.602890,30.220928 
	C35.330597,29.935999 35.058300,29.651070 34.433193,29.704348 
z"/>
<path fill="#B22324" opacity="1.000000" stroke="none" 
	d="
M8.025196,24.162149 
	C7.649127,23.192738 7.273058,22.223326 6.896990,21.253914 
	C7.988523,20.837416 9.078918,20.061781 10.171758,20.058321 
	C26.408316,20.006912 42.645195,20.057755 59.335224,20.119324 
	C59.788448,20.154224 59.845104,20.092033 59.860725,20.408504 
	C60.105858,21.055908 60.335369,21.386843 60.564884,21.717777 
	C60.507271,22.155033 60.449657,22.592287 60.338806,23.330050 
	C60.285564,23.630556 59.998306,24.027338 59.529884,24.017477 
	C42.049377,24.059128 25.037287,24.110640 8.025196,24.162149 
z"/>
<path fill="#B32426" opacity="1.000000" stroke="none" 
	d="
M61.636894,98.005188 
	C61.918259,99.163452 61.867512,100.313545 61.793133,101.999222 
	C56.234177,101.999222 50.783836,101.998466 45.333500,101.999367 
	C33.035828,102.001404 20.737144,102.078102 8.441832,101.909027 
	C6.980236,101.888924 5.537071,100.528641 4.085362,99.789574 
	C4.288602,99.221703 4.491841,98.653824 4.695081,98.085953 
	C12.460574,98.085953 20.226068,98.085953 28.450111,98.153107 
	C29.286114,98.815651 29.663567,99.411049 30.547441,100.331512 
	C32.115486,100.515091 33.177113,100.373604 34.238739,100.232109 
	C34.238739,100.232109 34.062153,100.224648 34.449345,100.162491 
	C35.371906,99.450371 35.907276,98.800415 36.442642,98.150467 
	C36.442646,98.150467 36.771004,98.179420 37.285553,98.089584 
	C38.868103,97.944351 39.936108,97.888947 41.465294,97.903755 
	C46.617508,97.925827 51.308533,97.877693 55.999557,97.829559 
	C57.767967,97.885368 59.536373,97.941185 61.636894,98.005188 
z"/>
<path fill="#B32324" opacity="1.000000" stroke="none" 
	d="
M51.775314,54.761364 
	C53.977737,56.034798 56.180157,57.308228 58.382580,58.581657 
	C58.178898,59.061874 57.975212,59.542088 57.771530,60.022305 
	C43.491287,60.022305 29.211044,60.022305 14.063348,60.020756 
	C11.129367,59.679790 9.062840,59.340374 6.996314,59.000957 
	C6.966681,58.542679 6.937047,58.084400 6.886005,57.023445 
	C7.244288,56.224510 7.623980,56.028244 8.466949,55.905533 
	C21.846657,55.983139 34.763229,56.014587 47.679298,55.948456 
	C48.957752,55.941910 50.233154,55.338947 51.547157,54.981487 
	C51.584339,54.950172 51.775314,54.761364 51.775314,54.761364 
z"/>
<path fill="#B32324" opacity="1.000000" stroke="none" 
	d="
M14.003844,61.836773 
	C27.981688,61.890442 41.960587,61.874424 55.936024,62.086601 
	C57.669231,62.112915 59.384029,63.351906 61.107353,64.028969 
	C60.930912,64.687889 60.754467,65.346809 60.578026,66.005730 
	C53.999001,66.005730 47.419979,66.005302 40.840954,66.005836 
	C32.019276,66.006554 23.196558,66.077904 14.376855,65.946579 
	C12.732949,65.922104 11.101142,65.085007 9.205156,63.895229 
	C10.632321,62.723934 12.318083,62.280354 14.003844,61.836773 
z"/>
<path fill="#B32324" opacity="1.000000" stroke="none" 
	d="
M58.871056,17.615898 
	C42.086021,17.944366 25.315681,17.944366 8.264841,17.944366 
	C8.221624,12.145764 12.563350,14.593837 16.034349,13.978252 
	C28.952505,13.929621 40.974560,13.882766 53.403168,13.911503 
	C55.185028,14.041415 56.560326,14.095735 57.935631,14.150054 
	C58.252335,15.195847 58.569038,16.241638 58.871056,17.615898 
z"/>
<path fill="#B22324" opacity="1.000000" stroke="none" 
	d="
M51.948677,67.997009 
	C54.598557,67.996452 56.809643,67.715393 58.899437,68.097572 
	C60.212364,68.337677 61.343288,69.572998 62.555862,70.361824 
	C62.343822,70.907715 62.131779,71.453606 61.919739,71.999496 
	C56.852520,71.999496 51.785305,71.999321 46.718086,71.999535 
	C37.248158,71.999939 27.774994,72.132088 18.310812,71.899200 
	C16.211529,71.847542 14.143935,70.508049 12.061750,69.761520 
	C12.198585,69.173355 12.335419,68.585182 12.472253,67.997009 
	C25.467697,67.997009 38.463142,67.997009 51.948677,67.997009 
z"/>
<path fill="#B32425" opacity="1.000000" stroke="none" 
	d="
M52.113686,54.414185 
	C51.775314,54.761364 51.584339,54.950172 51.314011,54.558052 
	C36.696739,54.167885 22.349796,54.169830 7.637380,54.094337 
	C6.587841,53.119099 5.903778,52.221306 5.219715,51.323513 
	C6.676361,50.881496 8.129742,50.069012 9.590169,50.056141 
	C21.169632,49.954102 32.752010,49.905365 44.329514,50.089848 
	C46.680271,50.127304 49.014210,51.220303 51.821198,52.068855 
	C52.448822,52.534687 52.667744,52.635826 52.943268,52.614433 
	C52.779530,53.098625 52.615795,53.582817 52.113686,54.414185 
z"/>
<path fill="#B32425" opacity="1.000000" stroke="none" 
	d="
M16.003386,12.169086 
	C14.384295,12.078039 12.765204,11.986992 10.659643,11.868589 
	C11.148037,10.777848 11.554620,9.869819 12.059062,8.661192 
	C25.561886,8.237667 38.967579,8.024745 52.370674,8.133007 
	C53.690281,8.143666 54.993984,10.123646 56.094803,11.539193 
	C54.921982,11.981676 53.959431,12.074529 52.627411,12.095735 
	C40.173092,12.072420 28.088240,12.120753 16.003386,12.169086 
z"/>
<path fill="#B22425" opacity="1.000000" stroke="none" 
	d="
M54.681221,119.561142 
	C41.591324,119.868576 28.603943,119.933029 15.616590,120.002342 
	C12.952345,120.016563 10.841161,119.464798 12.181751,116.009476 
	C27.521202,116.023613 42.115971,116.072983 56.710739,116.122360 
	C56.710739,116.122353 56.746632,116.435295 56.557518,116.716080 
	C55.979111,117.665176 55.589817,118.333496 55.200523,119.001816 
	C55.061600,119.107841 54.922676,119.213860 54.681221,119.561142 
z"/>
<path fill="#B32526" opacity="1.000000" stroke="none" 
	d="
M32.285480,80.027473 
	C31.048370,79.359718 29.880064,78.456383 28.560488,78.071007 
	C25.358208,77.135780 22.085554,76.441505 18.841255,75.650146 
	C18.912294,75.098495 18.983335,74.546837 19.054375,73.995178 
	C24.383144,73.995178 29.711914,73.995567 35.040684,73.995087 
	C43.014668,73.994362 50.989262,74.047195 58.962242,73.957214 
	C61.203384,73.931931 62.984924,74.079514 62.475742,77.425926 
	C61.077366,77.989601 60.027901,78.081581 58.515823,78.103653 
	C50.481834,78.025620 42.908970,77.944748 35.340927,78.099548 
	C34.372227,78.119362 33.428627,79.366150 32.429272,80.041199 
	C32.385143,80.037857 32.285480,80.027473 32.285480,80.027473 
z"/>
<path fill="#B32527" opacity="1.000000" stroke="none" 
	d="
M15.636880,5.944700 
	C17.545113,4.609326 19.910059,3.293667 22.639257,1.902046 
	C29.495066,1.880192 35.998669,1.720200 42.472782,2.084396 
	C45.431492,2.250836 48.332092,3.450234 51.259045,4.181146 
	C51.178547,4.775569 51.098049,5.369993 51.017548,5.964417 
	C39.376232,5.964417 27.734913,5.964417 15.636880,5.944700 
z"/>
<path fill="#B32626" opacity="1.000000" stroke="none" 
	d="
M5.053252,44.052219 
	C12.975040,44.049454 20.887810,43.911915 28.794100,44.079708 
	C30.617222,44.118404 32.418140,45.203247 34.616032,45.849632 
	C35.958786,46.413551 36.914783,46.934509 38.844086,47.985863 
	C27.006979,47.985863 16.141552,47.985863 4.974927,48.222797 
	C4.673728,48.459732 4.727209,48.384644 4.727208,48.384644 
	C4.836155,47.483631 4.945101,46.582623 5.021839,45.101879 
	C4.989630,44.522148 5.090868,44.047428 5.090868,44.047428 
	C5.090868,44.047428 5.041876,44.028461 5.053252,44.052219 
z"/>
<path fill="#B32425" opacity="1.000000" stroke="none" 
	d="
M31.735226,80.105064 
	C32.285480,80.027473 32.385143,80.037857 32.932369,80.018150 
	C41.659897,79.942650 49.840195,79.886856 58.426964,79.905128 
	C60.206902,80.026810 61.580376,80.074417 62.953846,80.122032 
	C62.953846,81.280029 62.953846,82.438034 62.953846,84.024773 
	C55.179436,84.024773 47.554932,84.024773 39.083431,84.026123 
	C35.539799,82.877876 32.843170,81.728287 30.146538,80.578690 
	C30.492682,80.446678 30.838827,80.314667 31.735226,80.105064 
z"/>
<path fill="#FCFBFA" opacity="1.000000" stroke="none" 
	d="
M57.093796,116.085037 
	C42.115971,116.072983 27.521202,116.023613 12.461944,115.906082 
	C11.998095,115.465790 11.998734,115.093658 12.462749,114.369934 
	C25.343748,114.011902 37.761372,114.006439 50.178993,113.998055 
	C52.331268,113.996605 54.534790,114.250893 56.612659,113.853638 
	C57.552124,113.674026 58.241722,112.187492 59.044682,111.293884 
	C58.362312,110.807930 57.679939,110.321983 56.998230,109.557343 
	C56.998474,108.907036 56.998062,108.535439 57.360825,108.088226 
	C58.701084,107.895645 59.678177,107.778679 60.655266,107.661720 
	C60.655266,107.661720 60.849560,107.851555 60.947952,107.946152 
	C63.358688,112.270996 61.751469,114.753914 57.093796,116.085037 
z"/>
<path fill="#B32425" opacity="1.000000" stroke="none" 
	d="
M31.899029,26.837559 
	C30.180107,27.900778 28.461185,28.963997 25.906673,30.027361 
	C19.989769,30.021549 14.905401,29.926662 9.830263,30.100794 
	C9.023383,30.128479 8.258012,31.366007 7.441415,32.043053 
	C7.409379,32.041904 7.420588,32.032436 7.420588,32.032436 
	C7.051726,31.360172 6.682864,30.687908 5.887422,29.922539 
	C6.394655,28.545885 7.328467,27.262335 9.088536,25.977539 
	C17.242872,26.263382 24.570950,26.550472 31.899029,26.837559 
z"/>
<path fill="#B32324" opacity="1.000000" stroke="none" 
	d="
M39.003742,85.834732 
	C45.907482,85.887459 52.814556,85.845474 59.711624,86.087990 
	C60.835209,86.127495 61.914566,87.424873 62.825653,88.937836 
	C54.431343,89.811302 46.225746,89.887772 38.020145,89.964241 
	C38.020145,89.964241 38.004860,90.004417 37.927383,89.655548 
	C38.234524,88.149368 38.619133,86.992050 39.003742,85.834732 
z"/>
<path fill="#B32526" opacity="1.000000" stroke="none" 
	d="
M62.893551,92.240463 
	C63.246426,97.292839 59.505375,95.806198 55.956886,96.030159 
	C50.386181,96.074966 45.695335,96.122101 40.624886,96.098114 
	C39.472965,96.028267 38.700638,96.029549 37.928314,96.030823 
	C37.951126,94.986923 37.973938,93.943016 38.481701,92.451065 
	C46.942287,92.082169 54.917919,92.161316 62.893551,92.240463 
z"/>
<path fill="#B32324" opacity="1.000000" stroke="none" 
	d="
M5.021158,38.485268 
	C12.014210,38.068333 18.992008,37.889374 25.957529,38.105713 
	C27.471577,38.152737 28.941633,39.616234 30.431950,40.427338 
	C30.224634,40.948448 30.017317,41.469555 29.809999,41.990665 
	C21.861704,41.990665 13.913409,41.990665 5.500508,41.948162 
	C5.024436,40.892124 5.012968,39.878590 5.021158,38.485268 
z"/>
<path fill="#B32324" opacity="1.000000" stroke="none" 
	d="
M6.952357,32.036057 
	C7.420588,32.032436 7.409379,32.041904 7.943868,32.020554 
	C14.317839,31.944084 20.157322,31.888971 25.996803,31.833858 
	C28.850935,31.698391 29.843742,32.913651 28.683256,35.985653 
	C21.165689,35.985653 13.569292,35.985653 5.509870,35.933563 
	C5.525939,34.600872 6.005033,33.320274 6.952357,32.036057 
z"/>
<path fill="#B32627" opacity="1.000000" stroke="none" 
	d="
M26.523735,92.015228 
	C27.218275,93.252823 27.445147,94.476845 27.730103,96.014244 
	C20.522840,96.014244 13.768586,96.083687 7.019048,95.936661 
	C6.047200,95.915489 5.098051,94.852196 4.138394,94.271172 
	C4.817307,93.504593 5.496222,92.738014 6.589468,91.898956 
	C13.354555,91.884872 19.705311,91.943268 26.523735,92.015228 
z"/>
<path fill="#B32525" opacity="1.000000" stroke="none" 
	d="
M39.477608,35.989113 
	C38.827404,34.857643 38.644878,33.742767 38.358788,31.995287 
	C45.805027,31.995287 52.930119,31.995287 60.522980,32.011929 
	C61.053528,32.192627 61.116314,32.356682 61.235626,33.011555 
	C61.481209,33.992874 61.670269,34.483383 61.859333,34.973888 
	C57.690670,35.318207 53.527020,35.759686 49.351704,35.974926 
	C46.224014,36.136166 43.081310,36.006081 39.477608,35.989113 
z"/>
<path fill="#FCFBFA" opacity="1.000000" stroke="none" 
	d="
M63.007820,91.954102 
	C54.917919,92.161316 46.942287,92.082169 38.503063,92.054405 
	C38.030640,91.629913 38.021809,91.154045 38.016563,90.321205 
	C46.225746,89.887772 54.431343,89.811302 62.893623,89.376839 
	C63.140900,89.901810 63.131496,90.784782 63.007820,91.954102 
z"/>
<path fill="#FCFBFA" opacity="1.000000" stroke="none" 
	d="
M39.002884,85.557320 
	C38.619133,86.992050 38.234524,88.149368 37.944473,89.642166 
	C35.384541,87.113739 32.730038,84.249825 30.111036,80.982300 
	C32.843170,81.728287 35.539799,82.877876 38.620079,84.098862 
	C39.003162,84.540131 39.002594,84.910019 39.002884,85.557320 
z"/>
<path fill="#FFFFFF" opacity="1.000000" stroke="none" 
	d="
M41.004486,96.169235 
	C45.695335,96.122101 50.386181,96.074966 55.538322,96.099617 
	C55.999676,96.539879 55.999729,96.908356 55.999672,97.553200 
	C51.308533,97.877693 46.617508,97.925827 41.464233,97.626366 
	C41.002819,96.908920 41.003651,96.539070 41.004486,96.169235 
z"/>
<path fill="#FCFBFA" opacity="1.000000" stroke="none" 
	d="
M14.002892,61.558479 
	C12.318083,62.280354 10.632321,62.723934 8.942120,63.583900 
	C8.084820,62.364071 7.231961,60.727859 6.687709,59.046303 
	C9.062840,59.340374 11.129367,59.679790 13.599931,60.093121 
	C14.003291,60.538086 14.002615,60.909138 14.002892,61.558479 
z"/>
<path fill="#FCFBFA" opacity="1.000000" stroke="none" 
	d="
M5.147743,51.703110 
	C5.903778,52.221306 6.587841,53.119099 7.637001,54.371037 
	C8.002622,55.094112 8.003146,55.463047 8.003670,55.831978 
	C7.623980,56.028244 7.244288,56.224510 6.729279,56.713745 
	C3.014319,56.313038 4.679314,54.002312 5.147743,51.703110 
z"/>
<path fill="#FCFBFA" opacity="1.000000" stroke="none" 
	d="
M59.998306,24.027338 
	C59.998306,24.027338 60.285564,23.630556 60.492149,23.500347 
	C61.945213,25.390673 64.765968,27.142084 61.458458,29.992529 
	C61.105198,30.104328 61.020809,30.020597 61.023186,29.611977 
	C60.683361,28.096367 60.341164,26.989380 59.998970,25.573212 
	C59.998745,24.851803 59.998524,24.439569 59.998306,24.027338 
z"/>
<path fill="#FCFBFA" opacity="1.000000" stroke="none" 
	d="
M55.999290,125.666367 
	C54.277584,125.675224 52.556084,125.350761 50.455368,125.052460 
	C50.076157,125.078636 49.929653,124.920776 49.935268,124.567490 
	C50.486404,123.753281 51.031925,123.292351 51.577442,122.831421 
	C52.793362,123.216682 54.009285,123.601944 55.612526,123.993454 
	C55.999733,124.444145 55.999615,124.888588 55.999290,125.666367 
z"/>
<path fill="#FCFBFA" opacity="1.000000" stroke="none" 
	d="
M52.996880,12.167381 
	C53.959431,12.074529 54.921982,11.981676 56.244919,11.841707 
	C57.034874,12.337431 57.464443,12.880270 57.914822,13.786581 
	C56.560326,14.095735 55.185028,14.041415 53.404041,13.633415 
	C52.997864,12.908950 52.997372,12.538166 52.996880,12.167381 
z"/>
<path fill="#FCFBFA" opacity="1.000000" stroke="none" 
	d="
M62.968433,79.726913 
	C61.580376,80.074417 60.206902,80.026810 58.531937,79.689438 
	C58.479778,78.990967 58.729111,78.582268 58.978439,78.173569 
	C60.027901,78.081581 61.077366,77.989601 62.515778,77.824928 
	C62.930824,78.278755 62.956921,78.805267 62.968433,79.726913 
z"/>
<path fill="#FCFBFA" opacity="1.000000" stroke="none" 
	d="
M40.624886,96.098114 
	C41.003651,96.539070 41.002819,96.908920 41.003044,97.556152 
	C39.936108,97.888947 38.868103,97.944351 37.398926,97.969963 
	C37.153599,97.410629 37.309452,96.881081 37.696808,96.191177 
	C38.700638,96.029549 39.472965,96.028267 40.624886,96.098114 
z"/>
<path fill="#FCFBFA" opacity="1.000000" stroke="none" 
	d="
M62.115555,35.110725 
	C61.670269,34.483383 61.481209,33.992874 61.358990,33.244385 
	C62.269493,33.826046 63.113159,34.665695 63.956821,35.505341 
	C63.428471,35.419415 62.900124,35.333485 62.115555,35.110725 
z"/>
<path fill="#FCFBFA" opacity="1.000000" stroke="none" 
	d="
M34.013023,92.463242 
	C34.411327,93.046997 34.509045,93.627167 34.606758,94.207336 
	C34.196796,94.202217 33.786827,94.197098 33.376862,94.191971 
	C33.488720,93.614532 33.600578,93.037102 34.013023,92.463242 
z"/>
<path fill="#FCFBFA" opacity="1.000000" stroke="none" 
	d="
M36.062420,98.143684 
	C35.907276,98.800415 35.371906,99.450371 34.531128,100.195976 
	C34.711208,99.573387 35.196705,98.855148 36.062420,98.143684 
z"/>
<path fill="#FCFBFA" opacity="1.000000" stroke="none" 
	d="
M33.784691,100.158112 
	C33.177113,100.373604 32.115486,100.515091 30.816517,100.397346 
	C31.496328,100.120110 32.413483,100.102112 33.784691,100.158112 
z"/>
<path fill="#FCFBFA" opacity="1.000000" stroke="none" 
	d="
M55.522121,118.935478 
	C55.589817,118.333496 55.979111,117.665176 56.629288,116.856277 
	C56.541355,117.433510 56.192535,118.151329 55.522121,118.935478 
z"/>
<path fill="#FCFBFA" opacity="1.000000" stroke="none" 
	d="
M63.999924,98.999878 
	C64.091827,98.963890 64.183807,98.928040 64.138016,98.946091 
	C64.000252,99.000000 64.000000,99.000000 63.999924,98.999878 
z"/>
<path fill="#FCFBFA" opacity="1.000000" stroke="none" 
	d="
M64.549423,110.468262 
	C64.582001,110.523125 64.516853,110.413391 64.549423,110.468262 
z"/>
<path fill="#FCFBFA" opacity="1.000000" stroke="none" 
	d="
M52.842545,52.467987 
	C52.667744,52.635826 52.448822,52.534687 52.209045,52.139591 
	C52.367081,52.030586 52.570492,52.148376 52.842545,52.467987 
z"/>
<path fill="#FCFBFA" opacity="1.000000" stroke="none" 
	d="
M60.621319,21.377138 
	C60.335369,21.386843 60.105858,21.055908 59.818764,20.406347 
	C60.066704,20.403980 60.372231,20.720240 60.621319,21.377138 
z"/>
<path fill="#FCFBFA" opacity="1.000000" stroke="none" 
	d="
M4.493281,48.327614 
	C4.727209,48.384644 4.673728,48.459732 4.705070,48.496132 
	C4.588266,48.584557 4.440121,48.636581 4.291976,48.688606 
	C4.281102,48.549267 4.270228,48.409927 4.493281,48.327614 
z"/>
<path fill="#FCFBFA" opacity="1.000000" stroke="none" 
	d="
M4.913023,44.097168 
	C5.090868,44.047428 4.989630,44.522148 4.917742,44.753956 
	C4.722215,44.791302 4.581785,44.604248 4.489835,44.395805 
	C4.472520,44.356556 4.648430,44.232063 4.913023,44.097168 
z"/>
<path fill="#FCFBFA" opacity="1.000000" stroke="none" 
	d="
M27.533707,89.551788 
	C27.476740,89.586105 27.590672,89.517464 27.533707,89.551788 
z"/>
<path fill="#B32223" opacity="1.000000" stroke="none" 
	d="
M60.678642,107.239059 
	C59.678177,107.778679 58.701084,107.895645 56.897141,108.016418 
	C39.719051,108.048683 23.367815,108.077141 7.016582,108.105598 
	C6.613558,107.275330 6.210534,106.445068 5.629599,105.306046 
	C6.819888,104.666451 8.186858,104.053764 9.556475,104.047798 
	C25.493952,103.978294 41.431835,103.992706 57.369583,104.008270 
	C59.209457,104.010078 61.779762,103.289207 60.678642,107.239059 
z"/>
<path fill="#B32324" opacity="1.000000" stroke="none" 
	d="
M56.997566,109.836037 
	C57.679939,110.321983 58.362312,110.807930 59.044682,111.293884 
	C58.241722,112.187492 57.552124,113.674026 56.612659,113.853638 
	C54.534790,114.250893 52.331268,113.996605 50.178993,113.998055 
	C37.761372,114.006439 25.343748,114.011902 12.462312,114.090836 
	C11.244286,114.110207 10.490073,114.057076 9.251606,113.778442 
	C8.596745,113.254089 8.349706,113.045990 8.026232,112.928619 
	C7.896597,112.056122 7.766962,111.183624 8.282162,110.148247 
	C24.950521,109.935585 40.974045,109.885811 56.997566,109.836037 
z"/>
<path fill="#B32728" opacity="1.000000" stroke="none" 
	d="
M51.311520,122.544159 
	C51.031925,123.292351 50.486404,123.753281 49.862007,124.488579 
	C47.456161,125.188919 45.129192,125.614883 42.399906,126.107864 
	C36.514030,126.119583 31.012018,126.314484 25.554096,125.911789 
	C22.456751,125.683250 19.431635,124.475739 16.373987,123.709114 
	C16.461233,123.225044 16.548479,122.740974 16.635723,122.256905 
	C28.105680,122.256905 39.575638,122.256905 51.311520,122.544159 
z"/>
<path fill="#FFFFFD" opacity="1.000000" stroke="none" 
	d="
M56.998226,109.557343 
	C40.974045,109.885811 24.950521,109.935585 8.459011,109.948456 
	C7.737097,109.465652 7.483171,109.019753 7.122912,108.339722 
	C23.367815,108.077141 39.719051,108.048683 56.533966,108.092033 
	C56.998062,108.535439 56.998474,108.907036 56.998226,109.557343 
z"/>
<path fill="#FCFBFA" opacity="1.000000" stroke="none" 
	d="
M3.999560,112.000610 
	C3.677014,111.898857 3.415981,111.711433 3.108061,111.219391 
	C2.999661,111.000427 3.000000,111.000000 3.000226,110.999847 
	C3.323015,111.101349 3.584079,111.288696 3.891821,111.780869 
	C4.000000,112.000000 3.999560,112.000610 3.999560,112.000610 
z"/>
<path fill="#FCFBFA" opacity="1.000000" stroke="none" 
	d="
M4.000287,111.999786 
	C4.121402,112.140945 4.242231,112.282318 4.363057,112.423691 
	C4.277926,112.374496 4.192797,112.325294 4.053614,112.138351 
	C3.999560,112.000610 4.000000,112.000000 4.000287,111.999786 
z"/>
<path fill="#FCFBFA" opacity="1.000000" stroke="none" 
	d="
M8.115850,113.161209 
	C8.349706,113.045990 8.596745,113.254089 8.872326,113.775574 
	C8.647047,113.889923 8.389770,113.688454 8.115850,113.161209 
z"/>
<path fill="#FEFFFF" opacity="1.000000" stroke="none" 
	d="
M59.529884,24.017477 
	C59.998524,24.439569 59.998745,24.851803 59.532967,25.625690 
	C50.780251,26.213879 42.493526,26.440409 34.206806,26.666939 
	C33.557365,26.893888 32.907925,27.120836 32.078758,27.092674 
	C24.570950,26.550472 17.242872,26.263382 9.449995,25.904617 
	C8.734297,25.421392 8.483395,25.009842 8.128845,24.380222 
	C25.037287,24.110640 42.049377,24.059128 59.529884,24.017477 
z"/>
<path fill="#FFFFFD" opacity="1.000000" stroke="none" 
	d="
M52.627411,12.095735 
	C52.997372,12.538166 52.997864,12.908950 52.997482,13.557823 
	C40.974560,13.882766 28.952505,13.929621 16.466906,13.904402 
	C16.002813,13.462718 16.002270,13.093108 16.002556,12.446293 
	C28.088240,12.120753 40.173092,12.072420 52.627411,12.095735 
z"/>
<path fill="#B32526" opacity="1.000000" stroke="none" 
	d="
M34.597618,26.674385 
	C42.493526,26.440409 50.780251,26.213879 59.532970,25.934870 
	C60.341164,26.989380 60.683361,28.096367 60.981449,29.569651 
	C55.452778,29.956823 49.960598,29.809284 44.486301,30.057009 
	C40.755508,30.225836 37.424633,29.874033 34.597618,26.674385 
z"/>
<path fill="#FEFEFE" opacity="1.000000" stroke="none" 
	d="
M25.997641,31.556721 
	C20.157322,31.888971 14.317839,31.944084 7.975904,32.021698 
	C8.258012,31.366007 9.023383,30.128479 9.830263,30.100794 
	C14.905401,29.926662 19.989769,30.021549 25.534180,30.099266 
	C25.997675,30.540543 25.998077,30.910061 25.997641,31.556721 
z"/>
<path fill="#FEFFFF" opacity="1.000000" stroke="none" 
	d="
M34.609600,29.535244 
	C35.058300,29.651070 35.330597,29.935999 35.602890,30.220928 
	C35.484940,30.333645 35.366989,30.446360 35.249039,30.559074 
	C34.977093,30.274164 34.705143,29.989256 34.609600,29.535244 
z"/>
<path fill="#FEFEFE" opacity="1.000000" stroke="none" 
	d="
M8.466949,55.905533 
	C8.003146,55.463047 8.002622,55.094112 8.002477,54.448479 
	C22.349796,54.169830 36.696739,54.167885 51.276825,54.589371 
	C50.233154,55.338947 48.957752,55.941910 47.679298,55.948456 
	C34.763229,56.014587 21.846657,55.983139 8.466949,55.905533 
z"/>
<path fill="#FEFEFE" opacity="1.000000" stroke="none" 
	d="
M58.515823,78.103653 
	C58.729111,78.582268 58.479778,78.990967 58.125473,79.615372 
	C49.840195,79.886856 41.659897,79.942650 32.976498,80.021500 
	C33.428627,79.366150 34.372227,78.119362 35.340927,78.099548 
	C42.908970,77.944748 50.481834,78.025620 58.515823,78.103653 
z"/>
</svg>